<?xml version="1.0" encoding="utf-8"?>
<!-- Generator: Adobe Illustrator 22.1.0, SVG Export Plug-In . SVG Version: 6.00 Build 0)  -->
<svg version="1.1" id="Layer_1" xmlns="http://www.w3.org/2000/svg" xmlns:xlink="http://www.w3.org/1999/xlink" x="0px" y="0px"
	 viewBox="0 0 512 512" style="enable-background:new 0 0 512 512;" xml:space="preserve">
<g>
	<path d="M285,187.1c0-12.8-11-14.4-21.4-14.4l-30.5-0.2v54.1h12.8V207h14.1c14.4,0,11.3,8,11.6,19.6h13v-10.5
		c0-7.2-1.2-11.8-8.6-14.4C281.7,199.4,285.1,193.4,285,187.1L285,187.1z M262.1,196h-16.2V184h16.4c4,0,8.4,0.8,8.4,5.8
		C270.6,194.9,266.5,196,262.1,196L262.1,196z M249,265.8h-41.2l-16.4,17.8l-16-17.8h-51.9l-0.1,54.1h51.1l16.6-18l15.9,18h25.1
		l0.1-18.2c14.8,0,38.5,3.6,38.5-18.2C270.8,270.1,261.2,265.8,249,265.8L249,265.8z M168,308.6h-31.7v-10.8h28.3v-11h-28.3V277
		h32.6l14,15.8L168,308.6z M219.3,315L199.6,293l19.8-21.4V315z M248.9,290.7h-16.6V277h16.8c4.4,0,8,1.8,8,6.6
		C257.1,288.6,253.5,290.7,248.9,290.7z M224.2,184v-11.4h-43.3v54.1h43.3v-11.2h-30.4v-10.8h29.5v-11h-29.5V184H224.2z
		 M480.9,255.5h-0.2H480.9z M329,280.4c0-12.8-11-14.6-21.2-14.6H277L277,320h13l0.1-19.8h13.7c8.6,0,11.6,1.6,11.6,10.8l-0.1,9h13
		l0.1-10.8c0-6.9-1.4-11.8-8.6-14.4C325.7,292.4,328.9,286.4,329,280.4z M306.2,289.2H290V277h16.4c4,0,8.4,0.8,8.4,5.8
		C314.8,288.2,310.5,289.2,306.2,289.2z M171.2,226.7v-54.1h-21.6l-15.4,36.7l-16.9-36.7H96.2v51.3l-21.9-51.3H55.1l-23.2,54.1h14
		l5-11.9h26.9l5,11.9h26.4v-42.3l18.7,42.3h11.4l18.7-42.3v42.3H171.2z M55.5,203.5l8.7-21.6l9,21.6H55.5z M428.3,327.6v-3.5
		c-8.4,4.4-3,3.5-122.4,3.5c0-19.7,0.1-18.7,0-19.7c-1.3-0.1-2.5-0.1-7.3-0.1c0,14-0.1,5.3-0.1,19.8h-30.9c0-9.4,0.1-11.9,0.1-22.8
		c-7.8,4.7-17.8,5-26.8,4.8c0,11.5-0.1,6.5-0.1,18h-38.2c-4-4.5-2.1-2.4-12-13.6c-2.5,2.7-10,10.9-12.6,13.6h-64v-72.1h64.9
		c3.9,4.4,2.2,2.4,12.1,13.4c2.5-2.7,9.5-10.5,12.3-13.4h45.3c7.7,0,14.1,1.5,19,4.4v-4.4c42.4,0,50.2-1.1,59.1,4v-4h61.1v4.1
		c8.9-5.4,15.3-4.1,50.7-4.1v3.9c8-4.6,13-4.1,42.4-3.9v-137c0-20.7-16.8-37.5-37.5-37.5H68.5C47.8,81.1,31,97.9,31,118.6v85.7
		c7.3-17.1,15.4-35.9,18-42.1h31c3.4,7.9,1.2,2.9,7,16.5v-16.5H123c2.3,4.8,8.7,18.7,10.9,23.4c4.5-10.6,7.9-18.7,9.8-23.4h80.4
		c0-0.1,9,0,9.1,0c34.1,0.2,41.9-0.6,50.3,4.1v-4.1h31.2v7.3c5.9-4.8,14-7.3,24-7.3h21.6c0,0.4,1.5,0.2,1.8,0.2h25.3
		c3.3,7.7,2,4.7,6.9,16.1v-16.1h33.8c3.8,6.2-0.8-1.4,8.7,14.4v-14.4h31.2v71.8h-32.5c-4.2-7-1.1-1.7-10.3-17.1v17.1h-41.2
		c-5-11.6-0.1-0.2-5.2-11.9h-14.8c-3.3,7.8-1.7,4.1-5,11.9h-20.9c-9.6,0-17.4-2.3-23.2-6.9v6.9h-51.9c-0.2-10.9-0.1-19.4-0.1-19.4
		c-1.4-0.2-2.7-0.2-7.7-0.2v19.6H149.2v-8.9c-2,4.4-2.1,4.6-4,8.9h-23c-3.1-6.9-2.3-5-4-8.9v8.9H76.9c-3.3-7.9-1.7-4.1-5-11.9h-15
		c-3.3,7.8-1.7,4.1-5,11.9H31.2v159.1c0,20.7,16.8,37.5,37.5,37.5h374.9c20.7,0,37.5-16.8,37.5-37.5v-70.6
		C471.1,329.3,455.5,327.6,428.3,327.6L428.3,327.6z M456.6,277.2h23.5v-11.4h-25.7c-10,0-18.6,5.2-18.6,16.2
		c0,25.8,33.3,10,33.3,21.4c0,4-3.4,5-6.6,5h-25l-0.1,11.6h25c6.6,0,13.7-1.4,17.6-6.9v-20.1c-8.2-10.8-30.7-1-30.7-10.5
		C449.5,277.8,453,277.2,456.6,277.2z M412.1,308.3H387l-0.1,11.6h25.1c11.6,0,20.5-4.4,20.5-17.2c0-25.9-33.5-8.7-33.5-20.5
		c0-4.4,3.8-5,7.2-5h23.7v-11.4H404c-10,0-18.3,5.2-18.3,16.2c0,25.8,33.3,9.8,33.3,21.4C418.9,307.5,415.3,308.3,412.1,308.3z
		 M379.2,277v-11.2h-43.1L336,320h43.1l0.1-11.2l-30.1-0.2v-10.8h29.6v-11h-29.5V277L379.2,277z M335.2,192.6
		c-0.2,0.2-1.1,1.7-1.1,5.9c0,4.7,0.7,6,0.9,6.2c0.2,0.1,0.9,0.4,2.7,0.4l5.7-13.2c-0.9,0-1.6-0.1-2.4-0.1
		C336.5,191.8,335.5,192.4,335.2,192.6z M351.1,184.4L351.1,184.4L351.1,184.4z M338.5,172.5c-18.3,0-26.5,9.4-26.5,27.6
		c0,17.3,8,26.5,25.8,26.5h15l5-11.9h26.8l5.2,11.9H416v-40.5l24.4,40.5h18.4v-53.9h-13.2v37.6l-22.7-37.6h-19.8v51.1l-21.8-51.1
		h-19.4l-18.3,42.6h-5.8c-10.4,0-12.6-6.3-12.6-15.5c0-18.6,12.3-15.6,25.8-15.4v-11.9L338.5,172.5z M371.4,182l8.7,21.6h-17.8
		L371.4,182z M292.4,172.6v54.1h13.2v-54.1H292.4z"/>
</g>
</svg>
